<mxfile host="app.diagrams.net" modified="2024-07-04T09:16:52.373Z" agent="Mozilla/5.0 (Windows NT 10.0; Win64; x64) AppleWebKit/537.36 (KHTML, like Gecko) Chrome/126.0.0.0 Safari/537.36" etag="aP5RlQe9izUPVnUOZPoB" version="24.6.4" type="device">
  <diagram name="Σελίδα-1" id="krV1axE8DyvHD5mY5Cjw">
    <mxGraphModel dx="1147" dy="1131" grid="1" gridSize="10" guides="1" tooltips="1" connect="1" arrows="1" fold="1" page="1" pageScale="1" pageWidth="827" pageHeight="1169" math="0" shadow="0">
      <root>
        <mxCell id="0" />
        <mxCell id="1" parent="0" />
        <mxCell id="o1jsD_kdsZWI5cXeY7W8-20" value="&lt;font style=&quot;font-size: 13px;&quot;&gt;Dropout = 0.1&lt;/font&gt;" style="text;html=1;align=center;verticalAlign=middle;whiteSpace=wrap;rounded=0;fontStyle=1" parent="1" vertex="1">
          <mxGeometry x="290" y="980" width="90" height="30" as="geometry" />
        </mxCell>
        <mxCell id="RJot37d2zvxK__3bYGWH-31" value="&lt;b&gt;&lt;font style=&quot;font-size: 22px;&quot;&gt;Transformer Model Architecture&lt;/font&gt;&lt;/b&gt;" style="text;html=1;align=center;verticalAlign=middle;whiteSpace=wrap;rounded=0;" parent="1" vertex="1">
          <mxGeometry x="230" y="110" width="340" height="50" as="geometry" />
        </mxCell>
        <mxCell id="RJot37d2zvxK__3bYGWH-22" value="" style="rounded=0;whiteSpace=wrap;html=1;fillColor=none;strokeColor=#ff0000;strokeWidth=2;" parent="1" vertex="1">
          <mxGeometry x="150" y="450" width="320" height="440" as="geometry" />
        </mxCell>
        <mxCell id="RJot37d2zvxK__3bYGWH-26" value="" style="rounded=0;whiteSpace=wrap;html=1;fillColor=none;strokeColor=#ff0000;strokeWidth=2;" parent="1" vertex="1">
          <mxGeometry x="150" y="250" width="320" height="190" as="geometry" />
        </mxCell>
        <mxCell id="o1jsD_kdsZWI5cXeY7W8-4" style="edgeStyle=orthogonalEdgeStyle;rounded=0;orthogonalLoop=1;jettySize=auto;html=1;strokeWidth=2;" parent="1" source="RJot37d2zvxK__3bYGWH-1" target="o1jsD_kdsZWI5cXeY7W8-1" edge="1">
          <mxGeometry relative="1" as="geometry" />
        </mxCell>
        <mxCell id="RJot37d2zvxK__3bYGWH-1" value="&lt;font style=&quot;font-size: 19px;&quot;&gt;Embeddings&lt;/font&gt;" style="rounded=1;whiteSpace=wrap;html=1;fillColor=#fad9d5;strokeColor=#ae4132;" parent="1" vertex="1">
          <mxGeometry x="180" y="270" width="190" height="60" as="geometry" />
        </mxCell>
        <mxCell id="RJot37d2zvxK__3bYGWH-6" style="edgeStyle=orthogonalEdgeStyle;rounded=0;orthogonalLoop=1;jettySize=auto;html=1;exitX=0.5;exitY=1;exitDx=0;exitDy=0;entryX=0.5;entryY=0;entryDx=0;entryDy=0;strokeWidth=2;" parent="1" source="RJot37d2zvxK__3bYGWH-2" target="RJot37d2zvxK__3bYGWH-1" edge="1">
          <mxGeometry relative="1" as="geometry" />
        </mxCell>
        <mxCell id="RJot37d2zvxK__3bYGWH-2" value="&lt;font style=&quot;font-size: 18px;&quot;&gt;Input Layer&lt;/font&gt;" style="rounded=1;whiteSpace=wrap;html=1;fillColor=#b0e3e6;strokeColor=#0e8088;" parent="1" vertex="1">
          <mxGeometry x="180" y="170" width="190" height="60" as="geometry" />
        </mxCell>
        <mxCell id="RJot37d2zvxK__3bYGWH-8" value="" style="edgeStyle=orthogonalEdgeStyle;rounded=0;orthogonalLoop=1;jettySize=auto;html=1;strokeWidth=2;" parent="1" source="RJot37d2zvxK__3bYGWH-3" target="RJot37d2zvxK__3bYGWH-4" edge="1">
          <mxGeometry relative="1" as="geometry" />
        </mxCell>
        <mxCell id="RJot37d2zvxK__3bYGWH-3" value="&lt;font style=&quot;font-size: 18px;&quot;&gt;Multi Head Attention&lt;/font&gt;" style="rounded=1;whiteSpace=wrap;html=1;fillColor=#fad7ac;strokeColor=#b46504;" parent="1" vertex="1">
          <mxGeometry x="180" y="465" width="190" height="60" as="geometry" />
        </mxCell>
        <mxCell id="o1jsD_kdsZWI5cXeY7W8-9" style="edgeStyle=orthogonalEdgeStyle;rounded=0;orthogonalLoop=1;jettySize=auto;html=1;entryX=0.5;entryY=0;entryDx=0;entryDy=0;strokeWidth=2;" parent="1" source="RJot37d2zvxK__3bYGWH-4" target="RJot37d2zvxK__3bYGWH-16" edge="1">
          <mxGeometry relative="1" as="geometry" />
        </mxCell>
        <mxCell id="o1jsD_kdsZWI5cXeY7W8-13" style="edgeStyle=orthogonalEdgeStyle;rounded=0;orthogonalLoop=1;jettySize=auto;html=1;entryX=0;entryY=0.5;entryDx=0;entryDy=0;strokeWidth=2;" parent="1" source="RJot37d2zvxK__3bYGWH-4" target="o1jsD_kdsZWI5cXeY7W8-10" edge="1">
          <mxGeometry relative="1" as="geometry">
            <Array as="points">
              <mxPoint x="160" y="590" />
              <mxPoint x="160" y="850" />
            </Array>
          </mxGeometry>
        </mxCell>
        <mxCell id="RJot37d2zvxK__3bYGWH-4" value="&lt;span style=&quot;font-size: 18px;&quot;&gt;Add + Normalization&lt;/span&gt;" style="rounded=1;whiteSpace=wrap;html=1;fillColor=#e1d5e7;strokeColor=#9673a6;" parent="1" vertex="1">
          <mxGeometry x="180" y="550" width="190" height="60" as="geometry" />
        </mxCell>
        <mxCell id="RJot37d2zvxK__3bYGWH-10" value="&lt;font style=&quot;font-size: 15px;&quot;&gt;(1021)&lt;/font&gt;" style="text;html=1;align=center;verticalAlign=middle;resizable=0;points=[];autosize=1;strokeColor=none;fillColor=none;strokeWidth=4;" parent="1" vertex="1">
          <mxGeometry x="370" y="185" width="70" height="30" as="geometry" />
        </mxCell>
        <mxCell id="RJot37d2zvxK__3bYGWH-12" value="&lt;font style=&quot;font-size: 15px;&quot;&gt;(1021, 500)&lt;/font&gt;" style="text;html=1;align=center;verticalAlign=middle;resizable=0;points=[];autosize=1;strokeColor=none;fillColor=none;strokeWidth=4;" parent="1" vertex="1">
          <mxGeometry x="370" y="285" width="100" height="30" as="geometry" />
        </mxCell>
        <mxCell id="RJot37d2zvxK__3bYGWH-13" value="&lt;font style=&quot;font-size: 15px;&quot;&gt;&lt;font style=&quot;font-size: 15px;&quot;&gt;(&lt;span style=&quot;background-color: rgb(255, 255, 255); color: rgba(0, 0, 0, 0.87); font-family: var(--jp-code-font-family); text-align: left; text-wrap: wrap;&quot;&gt;1021,&amp;nbsp;&lt;/span&gt;&lt;/font&gt;&lt;span style=&quot;font-family: var(--jp-code-font-family); text-wrap: wrap; background-color: rgb(255, 255, 255); color: rgba(0, 0, 0, 0.87); text-align: left;&quot;&gt;500&lt;/span&gt;&lt;span style=&quot;background-color: initial;&quot;&gt;)&lt;/span&gt;&lt;/font&gt;" style="text;html=1;align=center;verticalAlign=middle;resizable=0;points=[];autosize=1;strokeColor=none;fillColor=none;strokeWidth=4;" parent="1" vertex="1">
          <mxGeometry x="370" y="480" width="100" height="30" as="geometry" />
        </mxCell>
        <mxCell id="RJot37d2zvxK__3bYGWH-14" value="&lt;font style=&quot;font-size: 15px;&quot;&gt;(1021, 500)&lt;/font&gt;" style="text;html=1;align=center;verticalAlign=middle;resizable=0;points=[];autosize=1;strokeColor=none;fillColor=none;strokeWidth=4;" parent="1" vertex="1">
          <mxGeometry x="370" y="565" width="100" height="30" as="geometry" />
        </mxCell>
        <mxCell id="RJot37d2zvxK__3bYGWH-19" value="" style="edgeStyle=orthogonalEdgeStyle;rounded=0;orthogonalLoop=1;jettySize=auto;html=1;strokeWidth=2;" parent="1" source="RJot37d2zvxK__3bYGWH-16" target="RJot37d2zvxK__3bYGWH-18" edge="1">
          <mxGeometry relative="1" as="geometry" />
        </mxCell>
        <mxCell id="RJot37d2zvxK__3bYGWH-16" value="&lt;span style=&quot;font-size: 18px;&quot;&gt;Dense layer&lt;/span&gt;" style="rounded=1;whiteSpace=wrap;html=1;fillColor=#bed3b8;strokeColor=#23445d;" parent="1" vertex="1">
          <mxGeometry x="180" y="640" width="190" height="60" as="geometry" />
        </mxCell>
        <mxCell id="o1jsD_kdsZWI5cXeY7W8-12" value="" style="edgeStyle=orthogonalEdgeStyle;rounded=0;orthogonalLoop=1;jettySize=auto;html=1;strokeWidth=2;" parent="1" source="RJot37d2zvxK__3bYGWH-18" target="o1jsD_kdsZWI5cXeY7W8-10" edge="1">
          <mxGeometry relative="1" as="geometry" />
        </mxCell>
        <mxCell id="RJot37d2zvxK__3bYGWH-18" value="&lt;span style=&quot;font-size: 18px;&quot;&gt;Dense layer&lt;/span&gt;" style="rounded=1;whiteSpace=wrap;html=1;fillColor=#BED3B8;strokeColor=#23445d;" parent="1" vertex="1">
          <mxGeometry x="180" y="730" width="190" height="60" as="geometry" />
        </mxCell>
        <mxCell id="RJot37d2zvxK__3bYGWH-20" value="&lt;font style=&quot;font-size: 15px;&quot;&gt;(1021, 500)&lt;/font&gt;" style="text;html=1;align=center;verticalAlign=middle;resizable=0;points=[];autosize=1;strokeColor=none;fillColor=none;strokeWidth=4;" parent="1" vertex="1">
          <mxGeometry x="370" y="655" width="100" height="30" as="geometry" />
        </mxCell>
        <mxCell id="RJot37d2zvxK__3bYGWH-25" value="&lt;font style=&quot;font-size: 18px;&quot;&gt;&lt;b&gt;Transformer Block&lt;/b&gt;&lt;/font&gt;" style="text;html=1;align=center;verticalAlign=middle;whiteSpace=wrap;rounded=0;" parent="1" vertex="1">
          <mxGeometry x="470" y="655" width="180" height="30" as="geometry" />
        </mxCell>
        <mxCell id="RJot37d2zvxK__3bYGWH-27" value="&lt;font style=&quot;font-size: 18px;&quot;&gt;&lt;b&gt;Embeddings Layer&lt;/b&gt;&lt;/font&gt;" style="text;html=1;align=center;verticalAlign=middle;whiteSpace=wrap;rounded=0;" parent="1" vertex="1">
          <mxGeometry x="470" y="325" width="180" height="30" as="geometry" />
        </mxCell>
        <mxCell id="RJot37d2zvxK__3bYGWH-28" value="&lt;font style=&quot;font-size: 18px;&quot;&gt;Output&lt;/font&gt;" style="rounded=1;whiteSpace=wrap;html=1;fillColor=#b1ddf0;strokeColor=#10739e;" parent="1" vertex="1">
          <mxGeometry x="180" y="1020" width="190" height="60" as="geometry" />
        </mxCell>
        <mxCell id="RJot37d2zvxK__3bYGWH-36" value="&lt;font style=&quot;font-size: 15px;&quot;&gt;(1021, 500)&lt;/font&gt;" style="text;html=1;align=center;verticalAlign=middle;resizable=0;points=[];autosize=1;strokeColor=none;fillColor=none;strokeWidth=4;" parent="1" vertex="1">
          <mxGeometry x="370" y="745" width="100" height="30" as="geometry" />
        </mxCell>
        <mxCell id="o1jsD_kdsZWI5cXeY7W8-3" style="edgeStyle=orthogonalEdgeStyle;rounded=0;orthogonalLoop=1;jettySize=auto;html=1;entryX=0.5;entryY=0;entryDx=0;entryDy=0;strokeWidth=2;" parent="1" source="o1jsD_kdsZWI5cXeY7W8-1" target="RJot37d2zvxK__3bYGWH-3" edge="1">
          <mxGeometry relative="1" as="geometry" />
        </mxCell>
        <mxCell id="o1jsD_kdsZWI5cXeY7W8-6" style="edgeStyle=orthogonalEdgeStyle;rounded=0;orthogonalLoop=1;jettySize=auto;html=1;strokeWidth=2;" parent="1" source="o1jsD_kdsZWI5cXeY7W8-1" target="RJot37d2zvxK__3bYGWH-4" edge="1">
          <mxGeometry relative="1" as="geometry">
            <Array as="points">
              <mxPoint x="160" y="390" />
              <mxPoint x="160" y="570" />
            </Array>
          </mxGeometry>
        </mxCell>
        <mxCell id="o1jsD_kdsZWI5cXeY7W8-1" value="&lt;font style=&quot;font-size: 19px;&quot;&gt;Potisional Encoding&lt;/font&gt;" style="rounded=1;whiteSpace=wrap;html=1;fillColor=#ff9f94;strokeColor=#ae4132;" parent="1" vertex="1">
          <mxGeometry x="180" y="360" width="190" height="60" as="geometry" />
        </mxCell>
        <mxCell id="o1jsD_kdsZWI5cXeY7W8-5" value="&lt;font style=&quot;font-size: 15px;&quot;&gt;(1021, 500)&lt;/font&gt;" style="text;html=1;align=center;verticalAlign=middle;resizable=0;points=[];autosize=1;strokeColor=none;fillColor=none;strokeWidth=4;" parent="1" vertex="1">
          <mxGeometry x="370" y="375" width="100" height="30" as="geometry" />
        </mxCell>
        <mxCell id="o1jsD_kdsZWI5cXeY7W8-16" style="edgeStyle=orthogonalEdgeStyle;rounded=0;orthogonalLoop=1;jettySize=auto;html=1;entryX=0.5;entryY=0;entryDx=0;entryDy=0;strokeWidth=2;" parent="1" source="o1jsD_kdsZWI5cXeY7W8-10" target="o1jsD_kdsZWI5cXeY7W8-14" edge="1">
          <mxGeometry relative="1" as="geometry" />
        </mxCell>
        <mxCell id="o1jsD_kdsZWI5cXeY7W8-10" value="&lt;span style=&quot;font-size: 18px;&quot;&gt;Add + Normalization&lt;/span&gt;" style="rounded=1;whiteSpace=wrap;html=1;fillColor=#e1d5e7;strokeColor=#9673a6;" parent="1" vertex="1">
          <mxGeometry x="180" y="820" width="190" height="60" as="geometry" />
        </mxCell>
        <mxCell id="o1jsD_kdsZWI5cXeY7W8-11" value="&lt;font style=&quot;font-size: 15px;&quot;&gt;(1021, 500)&lt;/font&gt;" style="text;html=1;align=center;verticalAlign=middle;resizable=0;points=[];autosize=1;strokeColor=none;fillColor=none;strokeWidth=4;" parent="1" vertex="1">
          <mxGeometry x="370" y="835" width="100" height="30" as="geometry" />
        </mxCell>
        <mxCell id="o1jsD_kdsZWI5cXeY7W8-17" value="" style="edgeStyle=orthogonalEdgeStyle;rounded=0;orthogonalLoop=1;jettySize=auto;html=1;strokeWidth=2;" parent="1" source="o1jsD_kdsZWI5cXeY7W8-14" target="RJot37d2zvxK__3bYGWH-28" edge="1">
          <mxGeometry relative="1" as="geometry" />
        </mxCell>
        <mxCell id="o1jsD_kdsZWI5cXeY7W8-14" value="&lt;span style=&quot;font-size: 18px;&quot;&gt;GlobalAVGPooling&lt;/span&gt;" style="rounded=1;whiteSpace=wrap;html=1;fillColor=#7cb2fe;strokeColor=#247fff;" parent="1" vertex="1">
          <mxGeometry x="180" y="910" width="190" height="60" as="geometry" />
        </mxCell>
        <mxCell id="o1jsD_kdsZWI5cXeY7W8-15" value="&lt;font style=&quot;font-size: 15px;&quot;&gt;(500)&lt;/font&gt;" style="text;html=1;align=center;verticalAlign=middle;resizable=0;points=[];autosize=1;strokeColor=none;fillColor=none;strokeWidth=4;" parent="1" vertex="1">
          <mxGeometry x="370" y="925" width="60" height="30" as="geometry" />
        </mxCell>
      </root>
    </mxGraphModel>
  </diagram>
</mxfile>
